<svg width="38" height="30" viewBox="0 0 38 30" fill="none" xmlns="http://www.w3.org/2000/svg">
<path d="M37.6702 22.5777C37.3985 22.0589 36.8609 21.7677 36.3033 21.7999C36.1439 21.5845 35.9212 21.4255 35.6605 21.344C35.3355 21.2423 34.9902 21.2732 34.6886 21.4308C34.3868 21.5884 34.1645 21.854 34.0628 22.1786C33.9857 22.4244 33.9848 22.6816 34.0573 22.9228C33.6951 23.3275 33.6012 23.9307 33.8675 24.4394C34.1072 24.8966 34.5754 25.1585 35.0595 25.1585C35.2691 25.1585 35.4816 25.1095 35.6798 25.0058C35.8389 24.9228 35.9786 24.8084 36.0914 24.6719C36.4144 24.7378 36.7556 24.6935 37.056 24.5365C37.4 24.3569 37.6534 24.0541 37.7694 23.6842C37.8854 23.3142 37.8501 22.9213 37.6702 22.5777ZM36.8119 23.3848C36.7759 23.4993 36.6975 23.593 36.5909 23.6488C36.4476 23.7234 36.2741 23.7155 36.1375 23.6277C36.004 23.5418 35.8376 23.5241 35.6893 23.5797C35.5407 23.6355 35.4272 23.7583 35.3835 23.9107C35.3575 24.0012 35.2976 24.0747 35.2146 24.118C35.049 24.2049 34.8434 24.1405 34.7566 23.9749C34.6699 23.8093 34.7342 23.604 34.8973 23.5188L34.9123 23.5115C35.0517 23.4436 35.1517 23.3151 35.1834 23.1634C35.2149 23.0117 35.1745 22.8539 35.0737 22.7361C35.0599 22.7198 35.0481 22.7028 35.0388 22.6849C35.0051 22.6206 34.9986 22.5471 35.0202 22.478C35.0418 22.4089 35.0892 22.3523 35.1537 22.3187C35.193 22.2982 35.2359 22.2877 35.2791 22.2877C35.3064 22.2877 35.3337 22.2919 35.3607 22.3002C35.4298 22.3218 35.4866 22.3692 35.5201 22.4331C35.5298 22.4517 35.5374 22.4717 35.5429 22.4926C35.5788 22.6324 35.6732 22.7498 35.8021 22.815C35.9308 22.8799 36.0815 22.8867 36.2156 22.8329C36.4303 22.747 36.6735 22.8368 36.781 23.0422C36.8369 23.1486 36.8477 23.2702 36.8119 23.3848Z" fill="#2E2E2E"/>
<path d="M31.3178 16.5109C31.3599 16.6528 31.3992 16.7993 31.4342 16.9461C31.4893 17.1761 31.695 17.3308 31.9218 17.3308C31.9605 17.3308 31.9996 17.3262 32.0388 17.3169C32.3082 17.2527 32.4745 16.9823 32.4101 16.7132C32.3709 16.5489 32.3269 16.3849 32.2795 16.2258C32.2007 15.9607 31.9216 15.8092 31.6558 15.8881C31.3903 15.9668 31.2389 16.2457 31.3178 16.5109Z" fill="#2E2E2E"/>
<path d="M27.965 12.2378C28.7597 12.7684 29.4427 13.3899 29.9949 14.0846C30.1654 14.2991 30.3258 14.5239 30.4717 14.7527C30.5548 14.8831 30.6357 15.0187 30.7117 15.1555C30.8034 15.3204 30.9744 15.4133 31.1507 15.4133C31.2331 15.4133 31.3167 15.393 31.3938 15.3502C31.6361 15.2158 31.7234 14.9108 31.5888 14.669C31.503 14.5147 31.4119 14.3617 31.3179 14.2144C31.1535 13.9565 30.9727 13.7031 30.7806 13.4617C30.1636 12.6855 29.4041 11.9935 28.5227 11.4049C28.2925 11.251 27.9809 11.313 27.8269 11.5428C27.6729 11.7728 27.7347 12.084 27.965 12.2378Z" fill="#2E2E2E"/>
<path d="M9.42744 14.1798C9.5063 14.2249 9.59228 14.2465 9.67701 14.2465C9.85069 14.2465 10.0196 14.1563 10.1124 13.9951C10.2477 13.76 10.3005 13.6893 10.4972 13.4265L10.5129 13.4056C11.0142 12.7355 11.6266 12.143 12.3333 11.6445C12.5596 11.4849 12.6135 11.1723 12.4536 10.9463C12.2937 10.7205 11.9807 10.6665 11.7545 10.8262C10.9617 11.3853 10.2736 12.0515 9.70904 12.806L9.69336 12.827C9.49151 13.0968 9.40797 13.2086 9.24261 13.4957C9.10453 13.7356 9.18732 14.0418 9.42744 14.1798Z" fill="#2E2E2E"/>
<path d="M8.60136 15.9911C8.67449 16.0294 8.75335 16.0474 8.83131 16.0474C9.00298 16.0474 9.1708 15.9596 9.26548 15.8048C9.29342 15.7592 9.31312 15.7109 9.32508 15.6616C9.34299 15.6176 9.38357 15.5214 9.47409 15.317C9.58609 15.0638 9.47157 14.768 9.21821 14.6561C8.96456 14.5444 8.66847 14.6586 8.55647 14.9117C8.46826 15.1109 8.42062 15.223 8.3952 15.2856C8.36168 15.368 8.21453 15.7888 8.60136 15.9911Z" fill="#2E2E2E"/>
<path d="M18.3003 12.4839C18.2543 12.4769 17.1528 12.316 15.774 12.806C14.5173 13.2524 12.7706 14.3457 11.5859 17.0192C11.5172 17.1742 11.5316 17.3533 11.6242 17.4952C11.7168 17.6373 11.875 17.7229 12.0447 17.7229H18.2242C18.5013 17.7229 18.7258 17.4987 18.7258 17.2219V12.9792C18.7258 12.7318 18.5451 12.5215 18.3003 12.4839ZM17.7225 16.7209H12.8495C14.4455 13.7948 16.7709 13.4574 17.7225 13.4515V16.7209Z" fill="#2E2E2E"/>
<path d="M26.5917 14.5208C25.387 13.4188 23.2475 12.1662 19.8958 12.4566C19.6365 12.4791 19.4375 12.6959 19.4375 12.9557V17.2238C19.4375 17.5006 19.662 17.7248 19.9392 17.7248H27.9641C28.1299 17.7248 28.2851 17.6428 28.3785 17.5059C28.472 17.3691 28.4916 17.1949 28.4309 17.0406C28.41 16.9872 27.9014 15.7189 26.5917 14.5208ZM20.4408 16.7228V13.4247C22.619 13.3298 24.4477 13.9353 25.8809 15.2296C26.466 15.7579 26.8722 16.3077 27.1312 16.7227H20.4408V16.7228Z" fill="#2E2E2E"/>
<path d="M18.0954 18.9375H16.808C16.572 18.9375 16.3789 19.1304 16.3789 19.366C16.3789 19.6017 16.5721 19.7946 16.808 19.7946H18.0954C18.3314 19.7946 18.5245 19.6017 18.5245 19.366C18.5245 19.1304 18.3314 18.9375 18.0954 18.9375Z" fill="#2E2E2E"/>
<path d="M27.9469 18.9375H26.6595C26.4235 18.9375 26.2305 19.1304 26.2305 19.366C26.2305 19.6017 26.4236 19.7946 26.6595 19.7946H27.9469C28.183 19.7946 28.3761 19.6017 28.3761 19.366C28.3761 19.1304 28.183 18.9375 27.9469 18.9375Z" fill="#2E2E2E"/>
<path d="M33.2696 20.131C33.1915 19.4806 32.9304 19.0093 32.4936 18.73C32.0724 18.4606 31.6045 18.4522 31.291 18.4907C30.4674 15.6557 28.6219 13.2001 26.311 11.9802C25.5252 11.5653 24.7126 11.2629 23.9075 11.0454H26.66C26.9709 11.0454 27.2229 10.7937 27.2229 10.4833C27.2229 10.1729 26.9708 9.92124 26.66 9.92124H25.6327C25.7317 9.73443 25.7884 9.52201 25.7884 9.29646V6.96985C25.7884 6.23078 25.1863 5.62953 24.4462 5.62953H23.1286C23.157 5.52118 23.1735 5.40821 23.1735 5.2911V2.96464C23.1735 2.22557 22.5714 1.62425 21.8314 1.62425H21.1738L21.4253 1.39298C21.629 1.2055 21.6421 0.88859 21.4544 0.685082C21.2666 0.481426 20.9493 0.468512 20.7455 0.655988L20.0528 1.2933L19.3708 0.658066C19.1681 0.469328 18.8509 0.480387 18.6617 0.682781C18.4728 0.885102 18.4839 1.20209 18.6865 1.3909L18.9371 1.62425H18.2827C17.5427 1.62425 16.9405 2.22557 16.9405 2.96464V5.29125C16.9405 5.40829 16.9572 5.52132 16.9855 5.62968H15.6679C14.9278 5.62968 14.3256 6.23093 14.3256 6.97V9.29661C14.3256 9.52216 14.3823 9.73457 14.4813 9.92138H13.4541C13.1431 9.92138 12.8912 10.1731 12.8912 10.4834C12.8912 10.7938 13.1432 11.0455 13.4541 11.0455H15.8542C14.3842 11.4372 12.8425 12.1308 11.7495 13.3533C11.2477 13.9146 10.8693 14.546 10.5033 15.1565C10.4242 15.2884 10.3451 15.4205 10.2646 15.552C10.245 15.584 10.206 15.6547 10.1546 15.7489C9.91448 16.1892 9.73976 16.4835 9.63303 16.6276H7.63712C5.34051 16.6276 3.377 18.1892 2.61351 20.3772C2.28636 20.3638 1.76657 20.4089 1.33619 20.7506C1.05787 20.9717 0.721571 21.4024 0.700315 22.1994C0.682925 22.8541 0.872439 23.3583 1.26395 23.6981C1.4386 23.8496 1.63116 23.9473 1.81904 24.0094C1.73499 24.1286 1.68527 24.2734 1.68527 24.4295V24.5658C1.68527 24.9702 2.01666 25.3011 2.42162 25.3011H3.76665C3.90213 25.3336 4.04245 25.3522 4.187 25.3522H4.96921C5.13814 26.5539 5.90556 27.5664 6.95977 28.0786H4.45284C4.17578 28.0786 3.95118 28.3028 3.95118 28.5795C3.95118 28.8563 4.17578 29.0805 4.45284 29.0805H32.1246C32.4017 29.0805 32.6263 28.8563 32.6263 28.5795C32.6263 28.3028 32.4017 28.0786 32.1246 28.0786H26.8517C27.906 27.5664 28.6734 26.5539 28.8424 25.3522H29.8704C30.0163 25.3522 30.1581 25.3341 30.2947 25.3011H31.6464C32.0513 25.3011 32.3827 24.9702 32.3827 24.5658V24.5198H32.6794C32.9565 24.5198 33.1811 24.2956 33.1811 24.0189V22.4336C33.1811 22.1569 32.9565 21.9326 32.6794 21.9326H32.5073C32.6278 21.8598 32.745 21.77 32.8514 21.6566C33.0945 21.3975 33.3646 20.9225 33.2696 20.131ZM2.21962 23.0807C2.11498 23.0577 2.00752 23.0157 1.92212 22.9417C1.76791 22.8079 1.69426 22.5671 1.7034 22.226C1.7121 21.898 1.79779 21.6663 1.95772 21.5372C2.05449 21.4592 2.17778 21.4169 2.29914 21.3957L2.21962 23.0807ZM23.1736 6.63156H24.4463C24.6299 6.63156 24.7852 6.78653 24.7852 6.96993V7.63225H23.1736V6.63156ZM23.1736 8.63413H24.7852V9.29646C24.7852 9.47986 24.6299 9.63482 24.4463 9.63482H23.1736V8.63413ZM20.534 2.6262H21.8315C22.0151 2.6262 22.1703 2.78124 22.1703 2.96464V3.62696H20.534V2.6262ZM20.534 4.62892H22.1703V5.29125C22.1703 5.47464 22.0151 5.62968 21.8315 5.62968H20.8977H20.534V4.62892ZM20.5587 7.63218V6.96985C20.5587 6.78646 20.714 6.63149 20.8977 6.63149H21.8315H22.1703V7.63211H20.5587V7.63218ZM22.1703 8.63413V9.63475H20.8977C20.714 9.63475 20.5587 9.47978 20.5587 9.29639V8.63406H22.1703V8.63413ZM17.944 2.96464C17.944 2.78124 18.0992 2.6262 18.2828 2.6262H19.5308V3.62689H17.944V2.96464ZM17.944 4.62892H19.5308V5.62961H19.2166H18.2827C18.0991 5.62961 17.9439 5.47457 17.9439 5.29117V4.62892H17.944ZM17.944 6.63156H18.2828H19.2166C19.4003 6.63156 19.5555 6.78653 19.5555 6.96993V7.63225H17.944V6.63156ZM17.944 8.63413H19.5555V9.29646C19.5555 9.47986 19.4003 9.63482 19.2166 9.63482H17.944V8.63413ZM15.3291 6.96993C15.3291 6.78653 15.4843 6.63156 15.6681 6.63156H16.9407V7.63218H15.3291V6.96993ZM15.6681 9.63482C15.4843 9.63482 15.3291 9.47986 15.3291 9.29646V8.63413H16.9407V9.63475H15.6681V9.63482ZM9.56815 25.3522C9.38102 25.74 8.9849 26.0083 8.52494 26.0083C8.06505 26.0083 7.66878 25.74 7.48172 25.3522C7.40851 25.2004 7.3663 25.031 7.3663 24.8512C7.3663 24.2122 7.88497 23.6942 8.52494 23.6942C9.1649 23.6942 9.68365 24.2121 9.68365 24.8512C9.68365 25.031 9.64143 25.2004 9.56815 25.3522ZM10.09 28.0786C11.1443 27.5665 11.9117 26.554 12.0807 25.3523H21.7312C21.9001 26.554 22.6675 27.5665 23.7217 28.0786H10.09ZM26.33 25.3522C26.1428 25.74 25.7466 26.0083 25.2867 26.0083C24.8268 26.0083 24.4306 25.74 24.2435 25.3522C24.1703 25.2004 24.128 25.031 24.128 24.8512C24.128 24.2122 24.6468 23.6942 25.2867 23.6942C25.9267 23.6942 26.4454 24.2121 26.4454 24.8512C26.4454 25.031 26.4032 25.2004 26.33 25.3522ZM30.7859 22.9346C30.782 23.0964 30.7765 23.248 30.7702 23.3872C30.7681 23.4316 30.7636 23.4754 30.7567 23.518C30.7468 23.579 30.7319 23.6377 30.7129 23.6942H29.2384H28.6854C28.2021 22.2827 26.8617 21.2647 25.2868 21.2647C23.7118 21.2647 22.3713 22.2828 21.8883 23.6942H11.9236C11.4404 22.2827 10.1 21.2647 8.52508 21.2647C6.95011 21.2647 5.60962 22.2828 5.12654 23.6942H3.33932C3.29903 23.578 3.27614 23.452 3.27614 23.3199V22.4C3.27614 19.7695 5.23245 17.6294 7.63719 17.6294H9.81237C10.2082 17.6294 10.453 17.2967 11.0359 16.228C11.0757 16.1549 11.1054 16.0996 11.1208 16.0743C11.2029 15.9404 11.2836 15.8057 11.3643 15.671C11.7219 15.0744 12.0597 14.5108 12.498 14.0206C14.2118 12.1036 17.3066 11.6631 18.999 11.5712C20.815 11.4726 23.4765 11.6171 25.8423 12.8659C28.286 14.1561 30.2209 17.1476 30.6571 20.31C30.7862 21.2462 30.8034 22.1962 30.7859 22.9346ZM32.1778 23.518H31.7646C31.767 23.4895 31.7712 23.4616 31.7724 23.4328C31.7794 23.2802 31.7854 23.1132 31.7894 22.9347H32.1778V23.518ZM32.1219 20.9685C32.0377 21.0597 31.9218 21.1196 31.8049 21.1582L31.6381 19.4796C31.7484 19.4877 31.8622 19.515 31.9561 19.5761C32.1263 19.6868 32.233 19.9136 32.2733 20.2502C32.3125 20.576 32.2615 20.8177 32.1219 20.9685Z" fill="#2E2E2E"/>
<path d="M36.5466 28.0781H34.2165C33.9394 28.0781 33.7148 28.3023 33.7148 28.5791C33.7148 28.8559 33.9394 29.0801 34.2165 29.0801H36.5466C36.8237 29.0801 37.0483 28.8559 37.0483 28.5791C37.0483 28.3023 36.8236 28.0781 36.5466 28.0781Z" fill="#2E2E2E"/>
<path d="M2.31935 28.0781H0.501655C0.224518 28.0781 0 28.3023 0 28.5791C0 28.8559 0.224518 29.0801 0.501655 29.0801H2.31935C2.59649 29.0801 2.82101 28.8559 2.82101 28.5791C2.82101 28.3023 2.59649 28.0781 2.31935 28.0781Z" fill="#2E2E2E"/>
</svg>
