<svg width="58" height="58" viewBox="0 0 58 58" fill="none" xmlns="http://www.w3.org/2000/svg">
<path d="M57.7545 25.2174H32.7828H32.7827V0.24548C31.5444 0.0842813 30.282 0 29 0C27.718 0 26.4556 0.0842813 25.2174 0.24548V25.2172V25.2173H0.24548C0.0842813 26.4556 0 27.718 0 29C0 30.2822 0.0842813 31.5444 0.24548 32.7826H25.2172H25.2173V57.7545C26.4556 57.9157 27.718 58 29 58C30.282 58 31.5444 57.9158 32.7826 57.7545V32.7828V32.7827H57.7545C57.9157 31.5444 58 30.2822 58 29C58 27.718 57.9157 26.4556 57.7545 25.2174Z" fill="#D80027"/>
</svg>
